<?xml version="1.0" encoding="UTF-8"?>
<svg xmlns="http://www.w3.org/2000/svg" viewBox="0 0 283.46 283.46">
  <defs>
    <style>
      .cls-1 {
        fill: #f58421;
      }

      .cls-2 {
        fill: #f7fbff;
      }
    </style>
  </defs>
  <g id="Bg">
    <circle class="cls-2" cx="141.73" cy="141.73" r="127.56"/>
  </g>
  <g id="Layer_1" data-name="Layer 1">
    <g>
      <path class="cls-1" d="M142.18,161.5c0,3.45-.69,6.48-2.07,9.08-1.38,2.61-3.28,4.79-5.69,6.55-2.41,1.76-5.21,3.1-8.39,4.02-3.18.92-6.57,1.38-10.17,1.38h-39.42v-81.59h43.67c2.83,0,5.4.61,7.7,1.84,2.3,1.23,4.25,2.82,5.86,4.77,1.61,1.95,2.85,4.18,3.74,6.67.88,2.49,1.32,5,1.32,7.53,0,3.98-1,7.72-2.99,11.2-1.99,3.49-4.9,6.07-8.74,7.76,4.67,1.38,8.37,3.85,11.09,7.41,2.72,3.56,4.08,8.03,4.08,13.39ZM92.3,114.5v20.57h21.15c2.68,0,4.96-.92,6.84-2.76,1.87-1.84,2.82-4.37,2.82-7.58s-.86-5.63-2.59-7.47c-1.72-1.84-3.85-2.76-6.38-2.76h-21.83ZM126.21,158.51c0-1.46-.25-2.85-.75-4.19-.5-1.34-1.17-2.51-2.01-3.51-.84-1-1.84-1.78-2.99-2.36-1.15-.57-2.41-.86-3.79-.86h-24.36v21.49h23.56c1.46,0,2.82-.27,4.08-.8,1.26-.54,2.36-1.28,3.28-2.24.92-.96,1.65-2.09,2.18-3.39.54-1.3.8-2.68.8-4.14Z"/>
      <path class="cls-1" d="M176.53,182.53c-4.68,0-8.91-.8-12.69-2.39-7.5-3.19-12.79-8.56-15.87-16.09-1.45-3.64-2.17-7.46-2.17-11.47s.7-8.07,2.12-11.75c3.02-7.63,8.31-13.07,15.87-16.31,3.82-1.63,8.11-2.45,12.86-2.45s9,.82,12.75,2.45c12.32,5.37,18.13,17.32,17.59,30.29-.04.89-.13,1.63-.28,2.23h-45.1c.22,2.3.78,4.34,1.67,6.12.89,1.78,2.04,3.3,3.45,4.57,1.41,1.26,3.01,2.23,4.79,2.89,1.78.67,3.64,1,5.57,1,2.97,0,5.77-.72,8.41-2.17,2.64-1.45,4.44-3.36,5.4-5.73l12.81,3.56c-2.15,4.45-5.59,8.11-10.3,10.97-4.71,2.86-10.34,4.29-16.87,4.29ZM191.68,147.34c-.37-4.38-1.99-7.89-4.84-10.52-2.86-2.63-6.33-3.95-10.41-3.95-2,0-3.88.35-5.62,1.06-1.75.71-3.29,1.69-4.62,2.95-1.34,1.26-2.43,2.78-3.29,4.57-.85,1.78-1.36,3.75-1.5,5.9h30.29Z"/>
      <path class="cls-1" d="M156.9,104.81h39.04v9.69h-39.04v-9.69Z"/>
    </g>
  </g>
</svg>