<?xml version="1.0" encoding="UTF-8"?>
<svg xmlns="http://www.w3.org/2000/svg" viewBox="0 0 283.46 283.46">
  <defs>
    <style>
      .cls-1 {
        fill: #f58421;
      }

      .cls-2 {
        fill: #f7fbff;
      }
    </style>
  </defs>
  <g id="Bg">
    <circle class="cls-2" cx="141.73" cy="141.73" r="127.56"/>
  </g>
  <g id="Layer_1" data-name="Layer 1">
    <g>
      <path class="cls-1" d="M176.88,99.06c-4.3,0-7.78,3.48-7.78,7.78s3.48,7.78,7.78,7.78,7.78-3.48,7.78-7.78-3.48-7.78-7.78-7.78Z"/>
      <path class="cls-1" d="M142.28,109.04c-18.03,0-32.7,14.67-32.7,32.7s14.67,32.7,32.7,32.7,32.7-14.67,32.7-32.7-14.67-32.7-32.7-32.7ZM142.28,162.68c-11.55,0-20.94-9.39-20.94-20.94s9.4-20.94,20.94-20.94,20.94,9.39,20.94,20.94-9.39,20.94-20.94,20.94Z"/>
      <path class="cls-1" d="M168.23,208.11h-53.01c-21.99,0-39.88-17.89-39.88-39.88v-53.01c0-21.99,17.89-39.88,39.88-39.88h53.01c21.99,0,39.88,17.89,39.88,39.88v53.01c0,21.99-17.89,39.88-39.88,39.88ZM115.23,87.84c-15.1,0-27.39,12.28-27.39,27.39v53.01c0,15.1,12.29,27.39,27.39,27.39h53.01c15.1,0,27.39-12.29,27.39-27.39v-53.01c0-15.1-12.29-27.39-27.39-27.39h-53.01Z"/>
    </g>
  </g>
</svg>