<?xml version="1.0" encoding="UTF-8"?>
<svg xmlns="http://www.w3.org/2000/svg" viewBox="0 0 283.46 283.46">
  <defs>
    <style>
      .cls-1 {
        fill: #f58421;
      }

      .cls-2 {
        fill: #f7fbff;
      }
    </style>
  </defs>
  <g id="Bg">
    <circle class="cls-2" cx="141.73" cy="141.73" r="127.56"/>
  </g>
  <g id="Layer_1" data-name="Layer 1">
    <g>
      <path class="cls-1" d="M90.63,111.86h21.93v70.45h-21.93v-70.45ZM101.59,76.85c7.01,0,12.7,5.69,12.7,12.69s-5.68,12.71-12.7,12.71-12.71-5.7-12.71-12.71,5.68-12.69,12.71-12.69"/>
      <path class="cls-1" d="M126.3,111.86h21v9.64h.29c2.93-5.54,10.07-11.38,20.74-11.38,22.17,0,26.26,14.58,26.26,33.55v38.64h-21.88v-34.25c0-8.18-.16-18.68-11.38-18.68s-13.14,8.9-13.14,18.08v34.85h-21.89v-70.45Z"/>
    </g>
  </g>
</svg>