<?xml version="1.0" encoding="UTF-8"?>
<svg xmlns="http://www.w3.org/2000/svg" viewBox="0 0 283.46 283.46">
  <defs>
    <style>
      .cls-1 {
        fill: #f58421;
      }

      .cls-2 {
        fill: #f7fbff;
      }
    </style>
  </defs>
  <g id="Bg">
    <circle class="cls-2" cx="141.73" cy="141.73" r="127.56"/>
  </g>
  <g id="Layer_1" data-name="Layer 1">
    <path class="cls-1" d="M171.41,136.16c.6.25,1.15.52,1.72.77,7.99,3.86,13.85,9.63,16.91,16.8,4.3,9.99,4.71,26.22-8.29,39.19-9.91,9.91-21.97,14.37-39.02,14.5h-.08c-19.21-.14-33.96-6.6-43.89-19.21-8.84-11.22-13.38-26.85-13.55-46.41v-.14c.14-19.57,4.68-35.19,13.52-46.41,9.93-12.62,24.71-19.07,43.92-19.21h.08c19.24.14,34.18,6.57,44.41,19.13,5.04,6.21,8.76,13.68,11.11,22.36l-11.06,2.96c-1.94-7.06-4.87-13.08-8.81-17.9-7.99-9.8-19.98-14.83-35.71-14.94-15.6.14-27.39,5.14-35.08,14.89-7.17,9.11-10.89,22.3-11.03,39.19.14,16.88,3.86,30.07,11.03,39.21,7.66,9.74,19.48,14.75,35.08,14.89,14.07-.11,23.37-3.45,31.11-11.19,8.84-8.81,8.67-19.65,5.86-26.24-1.67-3.89-4.68-7.12-8.73-9.55-1.01,7.36-3.23,13.22-6.76,17.73-4.68,5.97-11.33,9.19-19.89,9.66-6.46.36-12.67-1.2-17.49-4.38-5.69-3.78-9.03-9.52-9.39-16.23-.68-13.22,9.77-22.71,26.05-23.64,5.77-.33,11.19-.08,16.2.77-.66-4.05-2-7.28-4-9.63-2.74-3.2-7.01-4.84-12.64-4.87h-.19c-4.54,0-10.67,1.26-14.59,7.2l-9.41-6.46c5.25-7.96,13.76-12.34,24.03-12.34h.22c17.13.11,27.34,10.81,28.38,29.47l-.05.05h.03ZM128.72,154.99c.36,6.87,7.77,10.07,14.94,9.66,7.01-.38,14.94-3.12,16.28-20.03-3.61-.79-7.61-1.2-11.88-1.2-1.31,0-2.63.03-3.94.11-11.74.66-15.65,6.35-15.38,11.44l-.03.03h0Z"/>
  </g>
</svg>