<?xml version="1.0" encoding="UTF-8"?>
<svg xmlns="http://www.w3.org/2000/svg" viewBox="0 0 283.46 283.46">
  <defs>
    <style>
      .cls-1 {
        fill: #f58421;
      }

      .cls-2 {
        fill: #f7fbff;
      }
    </style>
  </defs>
  <g id="Bg">
    <circle class="cls-2" cx="141.73" cy="141.73" r="127.56"/>
  </g>
  <g id="Layer_1" data-name="Layer 1">
    <path class="cls-1" d="M196.8,128.06h-.02c-1.17.11-2.35.17-3.53.18-12.92,0-24.98-6.51-32.05-17.32v58.99c0,24.08-19.52,43.6-43.6,43.6s-43.6-19.52-43.6-43.6,19.52-43.6,43.6-43.6c.91,0,1.8.08,2.7.14v21.48c-.9-.11-1.77-.27-2.7-.27-12.29,0-22.25,9.96-22.25,22.25s9.96,22.25,22.25,22.25,23.15-9.68,23.15-21.98l.21-100.19h20.56c1.94,18.43,16.8,32.83,35.29,34.18v23.88Z"/>
  </g>
</svg>