<?xml version="1.0" encoding="UTF-8"?>
<svg xmlns="http://www.w3.org/2000/svg" viewBox="0 0 283.46 283.46">
  <defs>
    <style>
      .cls-1, .cls-2 {
        fill: #f58421;
      }

      .cls-3 {
        fill: #f7fbff;
      }

      .cls-2 {
        fill-rule: evenodd;
      }
    </style>
  </defs>
  <g id="Bg">
    <circle class="cls-3" cx="141.73" cy="141.73" r="127.56"/>
  </g>
  <g id="Layer_1" data-name="Layer 1">
    <g>
      <path class="cls-1" d="M76.05,207.57l9.44-35.22c-5.35-9.64-8.16-20.45-8.16-31.42,0-35.86,29.18-65.04,65.04-65.04s65.04,29.18,65.04,65.04-29.18,65.04-65.04,65.04c-10.77,0-21.4-2.72-30.92-7.88l-35.41,9.49ZM113.22,184.89l2.23,1.33c8.19,4.88,17.5,7.46,26.93,7.46,29.08,0,52.75-23.66,52.75-52.75s-23.66-52.74-52.75-52.74-52.74,23.66-52.74,52.74c0,9.6,2.67,19.06,7.71,27.35l1.37,2.25-5.27,19.67,19.78-5.3Z"/>
      <path class="cls-2" d="M166.57,149.97c-2.68-1.6-6.16-3.39-9.31-2.1-2.42.99-3.96,4.78-5.53,6.71-.8.99-1.76,1.15-3,.65-9.08-3.62-16.04-9.68-21.05-18.03-.85-1.3-.7-2.32.33-3.53,1.51-1.78,3.42-3.81,3.82-6.21.41-2.4-.72-5.21-1.71-7.35-1.27-2.73-2.69-6.63-5.43-8.18-2.52-1.42-5.83-.63-8.07,1.2-3.87,3.15-5.74,8.09-5.68,12.99.02,1.39.19,2.78.51,4.12.78,3.23,2.27,6.24,3.95,9.11,1.27,2.16,2.64,4.26,4.13,6.28,4.86,6.6,10.9,12.33,17.9,16.62,3.5,2.14,7.26,4.02,11.16,5.31,4.37,1.45,8.27,2.95,12.99,2.05,4.94-.94,9.82-4,11.78-8.76.58-1.41.87-2.98.55-4.47-.67-3.08-4.84-4.91-7.33-6.4Z"/>
    </g>
  </g>
</svg>