<?xml version="1.0" encoding="UTF-8"?>
<svg id="Layer_1" data-name="Layer 1" xmlns="http://www.w3.org/2000/svg" viewBox="0 0 850.39 850.39">
  <defs>
    <style>
      .cls-1 {
        fill: #778ac5;
      }

      .cls-2 {
        fill: #323233;
      }

      .cls-3 {
        fill: #97d9ef;
      }

      .cls-4 {
        fill: #f68521;
      }

      .cls-5 {
        fill: #3b3a3b;
      }

      .cls-6 {
        fill: #04689a;
      }
    </style>
  </defs>
  <g>
    <path class="cls-6" d="M337.27,138.56v142.09l191.53-198.61h-135.67c-30.85,0-55.86,25.31-55.86,56.52Z"/>
    <path class="cls-6" d="M527.76,531.07l-190.18-205.7v72.74c25.73,1.68,46.1,23.31,46.1,49.77s-20.36,48.1-46.1,49.77h0c0,18.45,14.78,33.41,33.02,33.41h157.16Z"/>
    <path class="cls-2" d="M457.22,259.28c-21.06,109,46.36,227.7,164.91,271.79V82.04c-84.7,27.37-149.05,95.15-164.91,177.24ZM602.37,312.91h-129.22c-3.59.08-6.55-2.92-6.48-6.47.06-3.46,2.98-6.31,6.48-6.24h129.22c4.37-.13,7.57,3.66,7.14,7.2-.37,3.06-3.43,5.71-7.14,5.51Z"/>
    <ellipse class="cls-5" cx="258.25" cy="486.09" rx="29.98" ry="30.34"/>
    <ellipse class="cls-4" cx="334.37" cy="447.88" rx="42.34" ry="42.85"/>
    <ellipse class="cls-1" cx="261.2" cy="418.94" rx="18.07" ry="18.28"/>
    <ellipse class="cls-3" cx="240.25" cy="387.49" rx="9.03" ry="9.14"/>
  </g>
  <g>
    <g>
      <path d="M81.86,635.74v-49.04c0-6.26,5.02-11.34,11.2-11.34h0v31.74l23.51-26.19c3.18-3.54,7.68-5.55,12.4-5.55h6.56l-31.51,34.65,33.9,37.11h-7.35c-4.51,0-8.82-1.89-11.9-5.22l-25.56-27.65v32.87h0c-6.21,0-11.25-5.1-11.25-11.38Z"/>
      <path d="M168.88,648.26c-3.9,0-7.42-.73-10.57-2.19-3.15-1.46-5.7-3.43-7.65-5.89-1.95-2.46-3.43-5.23-4.46-8.31-1.02-3.07-1.53-6.3-1.53-9.68s.54-6.93,1.63-10.15c1.09-3.22,2.64-6.08,4.65-8.58,2.01-2.5,4.59-4.48,7.72-5.96,3.13-1.48,6.6-2.22,10.4-2.22,3.31,0,6.27.71,8.86,2.14,2.6,1.43,4.68,3.34,6.23,5.74h0c0-3.65,2.92-6.6,6.53-6.6h4.14s0,39.57,0,39.57c0,6.07-4.86,10.99-10.86,10.99h0v-7.59c-1.49,2.63-3.55,4.74-6.16,6.33-2.61,1.59-5.59,2.39-8.94,2.39ZM170.39,639.29c4.77,0,8.33-1.6,10.67-4.8,2.34-3.2,3.51-7.48,3.51-12.84s-1.21-9.48-3.63-12.67c-2.42-3.19-5.98-4.78-10.69-4.78s-8.49,1.6-10.96,4.8c-2.47,3.2-3.7,7.45-3.7,12.74s1.24,9.41,3.73,12.67c2.48,3.25,6.18,4.88,11.08,4.88Z"/>
      <path d="M213.24,647.13c-6.03,0-10.91-4.94-10.91-11.04v-24.15c0-2.17-.05-4.24-.15-6.21-.1-1.97-.21-3.8-.34-5.49-.13-1.69-.21-2.92-.24-3.67h4.34c3.93,0,7.11,3.22,7.11,7.2h0c1.23-2.53,3.22-4.58,5.97-6.14,2.74-1.56,5.67-2.34,8.79-2.34,3.28,0,6.25.85,8.91,2.56,2.66,1.71,4.68,4.17,6.04,7.39,1.95-3.09,4.35-5.52,7.21-7.29,2.86-1.78,6.12-2.66,9.79-2.66,5.84,0,10.27,1.84,13.27,5.52,3,3.68,4.51,8.79,4.51,15.33v19.96c0,6.1-4.88,11.04-10.91,11.04h0v-30.16c0-2.37-.23-4.46-.68-6.28-.46-1.82-1.3-3.36-2.53-4.61-1.23-1.25-2.79-1.87-4.68-1.87-3.64,0-6.75,1.44-9.35,4.31-2.6,2.88-3.9,6.17-3.9,9.88v24.11c0,2.55-2.05,4.63-4.57,4.63h-1.97c-2.41,0-4.37-1.98-4.37-4.42v-26.58c0-1.54-.13-2.96-.39-4.26-.26-1.3-.69-2.55-1.29-3.77-.6-1.21-1.49-2.17-2.65-2.86-1.17-.69-2.57-1.03-4.19-1.03-3.57,0-6.6,1.26-9.08,3.79-2.48,2.53-3.73,5.44-3.73,8.72v30.41h0Z"/>
      <path d="M310.39,648.26c-4.19,0-7.96-.69-11.32-2.07-3.36-1.38-6.11-3.27-8.23-5.67-2.13-2.4-3.75-5.18-4.87-8.36-1.12-3.17-1.68-6.61-1.68-10.33,0-5.06.97-9.57,2.92-13.53,1.95-3.96,4.93-7.12,8.94-9.49,4.01-2.37,8.77-3.55,14.29-3.55,4.22,0,7.99.67,11.3,2.02,3.31,1.35,6.01,3.23,8.09,5.64,2.08,2.42,3.66,5.23,4.75,8.43,1.09,3.2,1.63,6.73,1.63,10.57,0,3.65-.56,7.05-1.68,10.2-1.12,3.15-2.73,5.94-4.82,8.35-2.09,2.41-4.81,4.31-8.13,5.69-3.33,1.38-7.06,2.07-11.18,2.07ZM310.34,639.29c4.81,0,8.42-1.63,10.84-4.88,2.42-3.25,3.63-7.46,3.63-12.62s-1.24-9.46-3.7-12.72c-2.47-3.25-6.07-4.88-10.81-4.88s-8.36,1.62-10.86,4.88c-2.5,3.25-3.75,7.49-3.75,12.72s1.23,9.36,3.7,12.62c2.47,3.25,6.12,4.88,10.96,4.88Z"/>
      <path d="M365.95,667.53c-6.66,0-12.95-1.35-18.9-4.04h0c.86-4.55,5.37-7.38,9.77-6.12,2.79.8,5.64,1.19,8.54,1.19,4.9,0,8.71-1.2,11.42-3.6,2.71-2.4,4.07-5.98,4.07-10.74v-4.78c-3.18,4.73-7.81,7.1-13.88,7.1-7.11,0-12.89-2.24-17.34-6.7-4.45-4.47-6.67-10.5-6.67-18.09,0-3.71.49-7.15,1.49-10.33.99-3.17,2.44-5.96,4.33-8.38,1.9-2.41,4.36-4.31,7.38-5.69,3.02-1.38,6.44-2.07,10.28-2.07,3.41,0,6.32.7,8.74,2.09,2.42,1.4,4.33,3.2,5.72,5.4v-6.21h0c6,0,10.91,4.98,10.73,11.05-.04,1.53-.07,3.07-.07,4.62v27.65c0,2.89-.23,5.59-.68,8.11-.46,2.51-1.28,5-2.46,7.47-1.19,2.46-2.72,4.56-4.6,6.28-1.88,1.73-4.34,3.12-7.38,4.19-3.04,1.07-6.54,1.6-10.5,1.6ZM367.7,638.11c2.4,0,4.51-.45,6.31-1.35,1.8-.9,3.22-2.16,4.26-3.77,1.04-1.61,1.8-3.4,2.29-5.37.49-1.97.73-4.14.73-6.51,0-5.09-1.14-9.18-3.41-12.27-2.27-3.09-5.52-4.63-9.74-4.63s-7.78,1.63-10.18,4.9c-2.4,3.27-3.6,7.45-3.6,12.54s1.13,9.27,3.38,12.15c2.26,2.88,5.57,4.31,9.96,4.31Z"/>
    </g>
    <g>
      <path d="M501.52,647.13v-37.95c0-1.38-.07-3.12-.19-5.22-.13-2.1-.26-3.86-.39-5.27l-.19-2.12h4.53c3.9,0,7.06,3.2,7.06,7.15h0c3.6-5.62,7.86-8.43,12.76-8.43,1.62,0,3.31.24,5.06.74v9.71c-1.88-.66-3.83-.98-5.84-.98-3.54,0-6.4,1.21-8.57,3.62-2.18,2.41-3.26,5.86-3.26,10.33v17.35c0,6.12-4.91,11.09-10.96,11.09h0Z"/>
      <path d="M571.55,647.08h-4.68c-3.57,0-6.51-.23-8.82-.69s-4.35-1.33-6.14-2.61c-1.79-1.28-3.08-3.12-3.87-5.52-.8-2.4-1.19-5.49-1.19-9.27v-25.04h-9.94c0-4.08,3.27-7.39,7.31-7.39h2.92v-12.32l10.57-3.21v15.53h13.64c0,4.08-3.27,7.39-7.31,7.39h-6.33s0,25.68,0,25.68c0,2.07.18,3.67.54,4.8.36,1.13,1.1,2.03,2.24,2.69,1.14.66,2.5,1.07,4.09,1.23.02,0,.03,0,.05,0,3.9.39,6.92,3.64,6.92,7.6v1.11Z"/>
      <path d="M578.3,636.34v-39.77h0c5.89,0,10.67,4.83,10.67,10.79v39.77h0c-5.89,0-10.67-4.83-10.67-10.79ZM578.35,580.3h0c0-2.72,2.18-4.93,4.87-4.93h.88c2.69,0,4.87,2.21,4.87,4.93h0c0,2.72-2.18,4.93-4.87,4.93h-.88c-2.69,0-4.87-2.21-4.87-4.93Z"/>
      <path d="M615.79,648.26c-4.35,0-8.28-.64-11.79-1.92-3.51-1.28-6.27-2.73-8.28-4.34h0c1.39-3.97,5.71-5.94,9.6-4.46.24.09.48.18.72.27,3.02,1.08,5.97,1.63,8.86,1.63,5.78,0,8.67-2.15,8.67-6.46,0-1.64-.6-2.92-1.8-3.82-1.2-.9-3.75-2.03-7.65-3.37l-4.68-1.63c-2.21-.76-4.01-1.48-5.41-2.17-1.4-.69-2.76-1.58-4.09-2.66-1.33-1.08-2.31-2.41-2.95-3.99-.63-1.58-.95-3.45-.95-5.62,0-2.5.5-4.69,1.51-6.58,1.01-1.89,2.39-3.38,4.14-4.48,1.75-1.1,3.68-1.92,5.8-2.46,2.11-.54,4.37-.81,6.77-.81,3.38,0,6.59.43,9.64,1.28,3.05.85,5.65,1.99,7.79,3.4l-.34.88c-1.36,3.59-5.23,5.41-8.87,4.31-.03,0-.05-.02-.08-.02-2.52-.76-4.88-1.13-7.09-1.13-5.75,0-8.62,1.74-8.62,5.22,0,1.58.51,2.76,1.54,3.55,1.02.79,3.27,1.81,6.74,3.05.13.03.93.31,2.41.84,1.48.53,2.32.82,2.51.89,1.88.66,3.42,1.26,4.63,1.8,1.2.54,2.44,1.24,3.73,2.09,1.28.86,2.28,1.78,3,2.76.71.98,1.31,2.2,1.78,3.65.47,1.44.71,3.1.71,4.98,0,2.76-.53,5.17-1.58,7.22-1.06,2.05-2.48,3.65-4.26,4.78-1.79,1.13-3.69,1.97-5.72,2.51-2.03.54-4.16.81-6.4.81Z"/>
      <path d="M675.14,647.08h-4.68c-3.57,0-6.51-.23-8.82-.69-2.3-.46-4.35-1.33-6.14-2.61-1.79-1.28-3.08-3.12-3.87-5.52-.8-2.4-1.19-5.49-1.19-9.27v-25.04h-9.94c0-4.08,3.27-7.39,7.31-7.39h2.92v-12.32l10.57-3.21v15.53h13.64c0,4.08-3.27,7.39-7.31,7.39h-6.33s0,25.68,0,25.68c0,2.07.18,3.67.54,4.8.36,1.13,1.1,2.03,2.24,2.69,1.14.66,2.5,1.07,4.09,1.23.02,0,.03,0,.05,0,3.9.39,6.92,3.64,6.92,7.6v1.11Z"/>
      <path d="M682.68,647.13v-37.95c0-1.38-.07-3.12-.19-5.22-.13-2.1-.26-3.86-.39-5.27l-.19-2.12h4.53c3.9,0,7.06,3.2,7.06,7.15h0c3.6-5.62,7.86-8.43,12.76-8.43,1.62,0,3.31.24,5.06.74v9.71c-1.88-.66-3.83-.98-5.84-.98-3.54,0-6.4,1.21-8.57,3.62-2.18,2.41-3.26,5.86-3.26,10.33v17.35c0,6.12-4.91,11.09-10.96,11.09h0Z"/>
      <path d="M727.91,668.86h0c-2.31-3.78-1.02-8.65,2.72-10.98,1.09-.68,2.05-1.38,2.88-2.11,2.34-2.05,3.91-4.43,4.72-7.12l.68-2.46-20.85-49.63h0c6.82,0,12.95,4.21,15.47,10.63l10.68,27.22,9.56-27.3c2.21-6.32,8.12-10.55,14.75-10.55h0l-20.26,53.32c-1.88,4.96-4.61,9.03-8.18,12.2-3.57,3.17-7.63,5.43-12.18,6.78Z"/>
      <path d="M493.99,647.13l-26.52-66.89c-1.17-2.94-3.98-4.87-7.11-4.87h-1.33c-3.01,0-5.72,1.86-6.83,4.69l-26.36,67.07c7.37,0,13.97-4.59,16.63-11.54l2.61-6.84h.02l3.56-10h-.02c2.44-6.8,6.09-17.04,10.96-30.7l15.03,41.55,2.24,5.76c2.77,7.11,9.55,11.78,17.11,11.78Z"/>
    </g>
  </g>
  <g>
    <path class="cls-4" d="M509.93,758.23h-3.72c-2.84,0-5.18-.18-7.01-.55-1.83-.37-3.46-1.06-4.88-2.08s-2.45-2.48-3.08-4.39c-.63-1.91-.95-4.37-.95-7.37v-19.92h-7.91c0-3.25,2.6-5.88,5.81-5.88h2.33v-9.8l8.41-2.55v12.35h10.85c0,3.25-2.6,5.88-5.81,5.88h-5.04s0,20.43,0,20.43c0,1.65.14,2.92.43,3.82.28.9.88,1.61,1.78,2.14.9.52,1.99.85,3.26.98.01,0,.03,0,.04,0,3.1.31,5.5,2.89,5.5,6.05v.89Z"/>
    <path class="cls-4" d="M308.86,767.49c-6.6,0-12.6-3.84-15.49-9.85-1.27-2.64-2.39-5.33-3.38-8.07-2.25-6.25-3.37-12.31-3.37-18.19,0-11.78,3.97-24.03,11.91-36.76h0c4.52,0,7.38,4.78,5.44,8.91-1.46,3.11-2.7,6.27-3.73,9.49-2.02,6.37-3.03,12.51-3.03,18.45,0,5.41,1.06,11.32,3.18,17.71,2.12,6.39,4.94,12.5,8.47,18.31h0Z"/>
    <path class="cls-4" d="M343.22,761.1c-3.98,0-7.48-.49-10.5-1.47-3.02-.98-5.44-2.27-7.28-3.87-1.84-1.6-3.32-3.59-4.46-5.96-1.14-2.38-1.92-4.8-2.35-7.28-.43-2.48-.64-5.24-.64-8.29v-37.02h0c5.99,0,10.84,4.91,10.84,10.97v26.52c0,2.59.24,4.88.73,6.87.48,1.99,1.14,3.61,1.98,4.88.84,1.27,1.88,2.3,3.12,3.11,1.24.81,2.55,1.37,3.93,1.68,1.38.32,2.91.48,4.59.48,2.16,0,4.08-.27,5.74-.82,1.67-.55,3.17-1.45,4.5-2.7,1.34-1.25,2.36-3.02,3.07-5.29.71-2.28,1.07-5.03,1.38-10.93v-26.46c0-5.58,5.18-9.66,10.53-8.3h0v37.06c0,3.03-.2,5.76-.6,8.21-.4,2.45-1.16,4.87-2.28,7.26-1.12,2.39-2.6,4.39-4.42,6-1.82,1.61-4.25,2.91-7.28,3.89-3.03.98-6.57,1.47-10.61,1.47Z"/>
    <path class="cls-4" d="M377.58,768.35c3.73-5.9,6.6-12.04,8.62-18.4,2.02-6.36,3.03-12.53,3.03-18.49,0-5.41-1.07-11.32-3.2-17.71-1.1-3.3-2.39-6.53-3.86-9.67-1.87-4,1.02-8.6,5.39-8.6h0c3.67,5.67,6.63,11.64,8.88,17.9,2.25,6.26,3.37,12.33,3.37,18.21,0,8.54-2.09,17.34-6.27,26.38-2.91,6.29-9.11,10.37-15.97,10.37h0Z"/>
    <path class="cls-4" d="M438.59,748.95v-40.77c0-6.06,4.85-10.97,10.84-10.97h0v48.25c0,2.88,2.31,5.22,5.16,5.22h14.31c5.14,0,9.31,4.22,9.31,9.42h0s-28.59,0-28.59,0c-6.09,0-11.02-4.99-11.02-11.15Z"/>
    <path class="cls-4" d="M537.11,760.93c-2.49-.27-4.91-1.12-7.01-2.5-6.69-4.41-10.03-11.17-10.03-20.27,0-3.14.44-6.1,1.32-8.9.88-2.79,2.16-5.28,3.82-7.47,1.67-2.19,3.85-3.92,6.55-5.2,2.7-1.28,5.73-1.92,9.09-1.92,3.02,0,5.57.63,7.66,1.88,2.09,1.25,3.55,2.56,4.38,3.91v-23.28h0c5.8,0,10.5,4.76,10.5,10.63v40.47c0,.17.13,4.12.38,11.84h-5.25c-3.1,0-5.63-2.52-5.68-5.66h0c-.25.66-.68,1.34-1.28,2.03-.6.69-1.4,1.41-2.39,2.14-1,.73-2.29,1.33-3.89,1.79-2.38.69-5.11.86-8.19.52ZM542.22,752.46c1.93,0,3.63-.4,5.08-1.19,1.45-.79,2.6-1.89,3.44-3.28.84-1.4,1.46-2.93,1.88-4.6.41-1.67.62-3.47.62-5.4,0-4.32-.92-7.84-2.78-10.56-1.85-2.72-4.62-4.08-8.32-4.08-2.48,0-4.56.68-6.25,2.03-1.69,1.35-2.9,3.08-3.63,5.18-.73,2.1-1.09,4.52-1.09,7.26,0,1.99.21,3.83.62,5.53.41,1.7,1.04,3.25,1.88,4.64.84,1.4,1.99,2.49,3.46,3.28,1.47.79,3.17,1.19,5.1,1.19Z"/>
  </g>
</svg>