<?xml version="1.0" encoding="UTF-8"?>
<svg id="Layer_1" xmlns="http://www.w3.org/2000/svg" width="512" height="512" version="1.1" viewBox="0 0 512 512">
  <!-- Generator: Adobe Illustrator 29.1.0, SVG Export Plug-In . SVG Version: 2.1.0 Build 142)  -->
  <path d="M164.9,83.98v145.49L363.35,26.1h-140.57c-31.97,0-57.88,25.91-57.88,57.88Z" fill="#016698"/>
  <path d="M362.27,485.9l-197.06-210.64v74.49c26.66,1.72,47.76,23.87,47.76,50.97s-21.1,49.25-47.76,50.97h0c0,18.9,15.32,34.21,34.21,34.21h162.84Z" fill="#016698"/>
  <path d="M289.18,207.59c-21.83,111.62,48.03,233.16,170.87,278.31V26.1c-87.76,28.03-154.43,97.43-170.87,181.49ZM439.58,262.51h-133.89c-3.72.08-6.78-2.99-6.72-6.63.07-3.55,3.08-6.46,6.72-6.39h133.89c4.53-.13,7.84,3.75,7.4,7.37-.39,3.13-3.55,5.84-7.4,5.65Z" fill="#323233"/>
  <circle cx="83.02" cy="439.85" r="31.07" fill="#39393a"/>
  <circle cx="161.89" cy="400.72" r="43.87" fill="#ff8500"/>
  <circle cx="86.08" cy="371.09" r="18.72" fill="#728ff7"/>
  <circle cx="64.37" cy="338.88" r="9.36" fill="#95d8ed"/>
</svg>